REM DIRINDEX 1\2,1\3,1\4,1\5
REM DIRNAME cjc004,folder01,folder02,folder03,folder04
TITLE ""
FILE "1Q_t_0453-0462.mp3" MP3
  TRACK 01 AUDIO
    TITLE "3:cjc004_2260"
    INDEX 01 00:00:00
  TRACK 02 AUDIO
    TITLE "0:"
    INDEX 01 00:00:66
  TRACK 03 AUDIO
    TITLE "4:cjc004_2261"
    INDEX 01 00:01:19
  TRACK 04 AUDIO
    TITLE "0:"
    INDEX 01 00:02:45
  TRACK 05 AUDIO
    TITLE "5:cjc004_2262"
    INDEX 01 00:02:67
  TRACK 06 AUDIO
    TITLE "0:"
    INDEX 01 00:07:37
  TRACK 07 AUDIO
    TITLE "3:cjc004_2263"
    INDEX 01 00:08:11
  TRACK 08 AUDIO
    TITLE "0:"
    INDEX 01 00:09:26
  TRACK 09 AUDIO
    TITLE "4:cjc004_2264"
    INDEX 01 00:09:49
  TRACK 10 AUDIO
    TITLE "0:"
    INDEX 01 00:10:63
  TRACK 11 AUDIO
    TITLE "5:cjc004_2265"
    INDEX 01 00:11:13
  TRACK 12 AUDIO
    TITLE "0:"
    INDEX 01 00:15:42
  TRACK 13 AUDIO
    TITLE "3:cjc004_2266"
    INDEX 01 00:16:20
  TRACK 14 AUDIO
    TITLE "0:"
    INDEX 01 00:17:33
  TRACK 15 AUDIO
    TITLE "4:cjc004_2267"
    INDEX 01 00:17:59
  TRACK 16 AUDIO
    TITLE "0:"
    INDEX 01 00:19:24
  TRACK 17 AUDIO
    TITLE "5:cjc004_2268"
    INDEX 01 00:19:56
  TRACK 18 AUDIO
    TITLE "0:"
    INDEX 01 00:23:38
  TRACK 19 AUDIO
    TITLE "3:cjc004_2269"
    INDEX 01 00:24:12
  TRACK 20 AUDIO
    TITLE "0:"
    INDEX 01 00:25:21
  TRACK 21 AUDIO
    TITLE "4:cjc004_2270"
    INDEX 01 00:25:50
  TRACK 22 AUDIO
    TITLE "0:"
    INDEX 01 00:26:50
  TRACK 23 AUDIO
    TITLE "5:cjc004_2271"
    INDEX 01 00:26:69
  TRACK 24 AUDIO
    TITLE "0:"
    INDEX 01 00:31:47
  TRACK 25 AUDIO
    TITLE "3:cjc004_2272"
    INDEX 01 00:32:19
  TRACK 26 AUDIO
    TITLE "0:"
    INDEX 01 00:33:21
  TRACK 27 AUDIO
    TITLE "4:cjc004_2273"
    INDEX 01 00:33:50
  TRACK 28 AUDIO
    TITLE "0:"
    INDEX 01 00:35:08
  TRACK 29 AUDIO
    TITLE "5:cjc004_2274"
    INDEX 01 00:35:33
  TRACK 30 AUDIO
    TITLE "0:"
    INDEX 01 00:42:06
  TRACK 31 AUDIO
    TITLE "3:cjc004_2275"
    INDEX 01 00:42:61
  TRACK 32 AUDIO
    TITLE "0:"
    INDEX 01 00:43:74
  TRACK 33 AUDIO
    TITLE "4:cjc004_2276"
    INDEX 01 00:44:32
  TRACK 34 AUDIO
    TITLE "0:"
    INDEX 01 00:45:24
  TRACK 35 AUDIO
    TITLE "5:cjc004_2277"
    INDEX 01 00:45:53
  TRACK 36 AUDIO
    TITLE "0:"
    INDEX 01 00:49:33
  TRACK 37 AUDIO
    TITLE "3:cjc004_2278"
    INDEX 01 00:50:11
  TRACK 38 AUDIO
    TITLE "0:"
    INDEX 01 00:51:32
  TRACK 39 AUDIO
    TITLE "4:cjc004_2279"
    INDEX 01 00:51:62
  TRACK 40 AUDIO
    TITLE "0:"
    INDEX 01 00:52:71
  TRACK 41 AUDIO
    TITLE "5:cjc004_2280"
    INDEX 01 00:53:23
  TRACK 42 AUDIO
    TITLE "0:"
    INDEX 01 00:56:67
  TRACK 43 AUDIO
    TITLE "3:cjc004_2281"
    INDEX 01 00:57:46
  TRACK 44 AUDIO
    TITLE "0:"
    INDEX 01 00:58:48
  TRACK 45 AUDIO
    TITLE "4:cjc004_2282"
    INDEX 01 00:59:06
  TRACK 46 AUDIO
    TITLE "0:"
    INDEX 01 01:00:33
  TRACK 47 AUDIO
    TITLE "5:cjc004_2283"
    INDEX 01 01:00:57
  TRACK 48 AUDIO
    TITLE "0:"
    INDEX 01 01:05:07
  TRACK 49 AUDIO
    TITLE "3:cjc004_2284"
    INDEX 01 01:05:68
  TRACK 50 AUDIO
    TITLE "0:"
    INDEX 01 01:06:71
  TRACK 51 AUDIO
    TITLE "4:cjc004_2285"
    INDEX 01 01:07:25
  TRACK 52 AUDIO
    TITLE "0:"
    INDEX 01 01:08:48
  TRACK 53 AUDIO
    TITLE "5:cjc004_2286"
    INDEX 01 01:08:74
  TRACK 54 AUDIO
    TITLE "0:"
    INDEX 01 01:13:20
  TRACK 55 AUDIO
    TITLE "3:cjc004_2287"
    INDEX 01 01:14:04
  TRACK 56 AUDIO
    TITLE "0:"
    INDEX 01 01:15:09
  TRACK 57 AUDIO
    TITLE "4:cjc004_2288"
    INDEX 01 01:15:37
  TRACK 58 AUDIO
    TITLE "0:"
    INDEX 01 01:16:42
  TRACK 59 AUDIO
    TITLE "5:cjc004_2289"
    INDEX 01 01:16:63
  TRACK 60 AUDIO
    TITLE "0:"
    INDEX 01 01:21:23
